<?xml version="1.0" encoding="UTF-8"?>
<svg xmlns="http://www.w3.org/2000/svg" xmlns:xlink="http://www.w3.org/1999/xlink" viewBox="0 0 16 16" width="16px" height="16px">
<g id="surface122136954">
<path style=" stroke:none;fill-rule:nonzero;fill:rgb(100%,100%,100%);fill-opacity:1;" d="M 8 1.601562 C 4.464844 1.601562 1.601562 4.464844 1.601562 8 C 1.601562 11.207031 3.964844 13.859375 7.042969 14.320312 L 7.042969 9.695312 L 5.460938 9.695312 L 5.460938 8.015625 L 7.042969 8.015625 L 7.042969 6.894531 C 7.042969 5.042969 7.945312 4.226562 9.488281 4.226562 C 10.222656 4.226562 10.613281 4.28125 10.800781 4.308594 L 10.800781 5.777344 L 9.75 5.777344 C 9.09375 5.777344 8.867188 6.394531 8.867188 7.09375 L 8.867188 8.015625 L 10.78125 8.015625 L 10.523438 9.695312 L 8.867188 9.695312 L 8.867188 14.335938 C 11.988281 13.910156 14.398438 11.238281 14.398438 8 C 14.398438 4.464844 11.535156 1.601562 8 1.601562 Z M 8 1.601562 "/>
</g>
</svg>
