<?xml version="1.0" encoding="UTF-8"?>
<svg xmlns="http://www.w3.org/2000/svg" xmlns:xlink="http://www.w3.org/1999/xlink" viewBox="0 0 16 16" width="16px" height="16px">
<g id="surface122145081">
<path style=" stroke:none;fill-rule:nonzero;fill:rgb(100%,100%,100%);fill-opacity:1;" d="M 5.332031 1.601562 C 3.273438 1.601562 1.601562 3.277344 1.601562 5.335938 L 1.601562 10.667969 C 1.601562 12.726562 3.277344 14.398438 5.335938 14.398438 L 10.667969 14.398438 C 12.726562 14.398438 14.398438 12.722656 14.398438 10.664062 L 14.398438 5.332031 C 14.398438 3.273438 12.722656 1.601562 10.664062 1.601562 Z M 11.734375 3.734375 C 12.027344 3.734375 12.265625 3.972656 12.265625 4.265625 C 12.265625 4.5625 12.027344 4.800781 11.734375 4.800781 C 11.4375 4.800781 11.199219 4.5625 11.199219 4.265625 C 11.199219 3.972656 11.4375 3.734375 11.734375 3.734375 Z M 8 4.800781 C 9.765625 4.800781 11.199219 6.234375 11.199219 8 C 11.199219 9.765625 9.765625 11.199219 8 11.199219 C 6.234375 11.199219 4.800781 9.765625 4.800781 8 C 4.800781 6.234375 6.234375 4.800781 8 4.800781 Z M 8 5.867188 C 6.820312 5.867188 5.867188 6.820312 5.867188 8 C 5.867188 9.179688 6.820312 10.132812 8 10.132812 C 9.179688 10.132812 10.132812 9.179688 10.132812 8 C 10.132812 6.820312 9.179688 5.867188 8 5.867188 Z M 8 5.867188 "/>
</g>
</svg>
